<svg xmlns="http://www.w3.org/2000/svg" width="1024" height="1024" viewBox="0 0 1024 1024" xmlns:c2pa="http://c2pa.org/manifest"><metadata><c2pa:manifest>AAAWgmp1bWIAAAAeanVtZGMycGEAEQAQgAAAqgA4m3EDYzJwYQAAABZcanVtYgAAAEdqdW1kYzJtYQARABCAAACqADibcQN1cm46YzJwYTo1YzQzNDA4YS1lMzllLTRiYjAtYmJkNy05MDhmMWZiZjRjNDIAAAADl2p1bWIAAAApanVtZGMyYXMAEQAQgAAAqgA4m3EDYzJwYS5hc3NlcnRpb25zAAAAALxqdW1iAAAARGp1bWRjYm9yABEAEIAAAKoAOJtxE2MycGEuaW5ncmVkaWVudC52MwAAAAAYYzJzaJmsP5+UII6MwE5v0sVpTqMAAABwY2JvcqNpZGM6Zm9ybWF0bWltYWdlL3N2Zyt4bWxqaW5zdGFuY2VJRHgseG1wOmlpZDplMTI2NTc0Yy00OGQ2LTQ0MDgtYTgxZS02OTRlNDY4ODc4YmFscmVsYXRpb25zaGlwaHBhcmVudE9mAAAB4mp1bWIAAABBanVtZGNib3IAEQAQgAAAqgA4m3ETYzJwYS5hY3Rpb25zLnYyAAAAABhjMnNoUnENejVnhR7Pk+AOO3Gk7AAAAZljYm9yomdhY3Rpb25zgqJmYWN0aW9ua2MycGEub3BlbmVkanBhcmFtZXRlcnOha2luZ3JlZGllbnRzgaJjdXJseC1zZWxmI2p1bWJmPWMycGEuYXNzZXJ0aW9ucy9jMnBhLmluZ3JlZGllbnQudjNkaGFzaFggg9d3WBhFgD1dt2n4UfJ2NsXmL4XM4Xm9LDlXrRq1YqOkZmFjdGlvbngdY29tLmFudGhyb3BpYy5jbGF1ZGUucHJvdmlkZWRqcGFyYW1ldGVyc6F4H2NvbS5hbnRocm9waWMub3JpZ2luLWNvbmZpZGVuY2VndW5rbm93bmtkZXNjcmlwdGlvbnhmQ2xhdWRlIHByb3ZpZGVkIHRoaXMgZmlsZSBhdCB0aGUgcmVxdWVzdCBvZiBhIHVzZXIgYW5kIG1heSBoYXZlIGNyZWF0ZWQgb3IgbW9kaWZpZWQgdGhlIGZpbGUgY29udGVudHMubXNvZnR3YXJlQWdlbnShZG5hbWVmQ2xhdWRlcmFsbEFjdGlvbnNJbmNsdWRlZPUAAADIanVtYgAAAEBqdW1kY2JvcgARABCAAACqADibcRNjMnBhLmhhc2guZGF0YQAAAAAYYzJzaHH8mJI0Cgp4fRtw3aOv+vIAAACAY2JvcqVjYWxnZnNoYTI1NmNwYWRNAAAAAAAAAAAAAAAAAGRoYXNoWCB6rE1N8XEEDIFrZtTly5fr7srmTqF3Xh7yVBA7CQHRVmRuYW1lbmp1bWJmIG1hbmlmZXN0amV4Y2x1c2lvbnOBomVzdGFydBiaZmxlbmd0aBkeBAAAAj5qdW1iAAAAJ2p1bWRjMmNsABEAEIAAAKoAOJtxA2MycGEuY2xhaW0udjIAAAACD2Nib3KlY2FsZ2ZzaGEyNTZpc2lnbmF0dXJleE1zZWxmI2p1bWJmPS9jMnBhL3VybjpjMnBhOjVjNDM0MDhhLWUzOWUtNGJiMC1iYmQ3LTkwOGYxZmJmNGM0Mi9jMnBhLnNpZ25hdHVyZWppbnN0YW5jZUlEeCx4bXA6aWlkOjBjYjA2ZGVmLTI4MTMtNDAxZS1iYzBmLWMzOWU1OTMxNDkwZHJjcmVhdGVkX2Fzc2VydGlvbnODomN1cmx4LXNlbGYjanVtYmY9YzJwYS5hc3NlcnRpb25zL2MycGEuaW5ncmVkaWVudC52M2RoYXNoWCCD13dYGEWAPV23afhR8nY2xeYvhczheb0sOVetGrVio6JjdXJseCpzZWxmI2p1bWJmPWMycGEuYXNzZXJ0aW9ucy9jMnBhLmFjdGlvbnMudjJkaGFzaFggOKJde2aiUyOTzoWU+iDzrhBdYj7slwjBkmCkYlGY98OiY3VybHgpc2VsZiNqdW1iZj1jMnBhLmFzc2VydGlvbnMvYzJwYS5oYXNoLmRhdGFkaGFzaFggUe20v61YP6ZqDiXa2ICe/yV6swed9EHsdqI2nVd+/sJ0Y2xhaW1fZ2VuZXJhdG9yX2luZm+jZG5hbWVvQW50aHJvcGljIEZpbGVzZ3ZlcnNpb25lMS4wLjBrc3BlY1ZlcnNpb25lMi40LjAAABA4anVtYgAAAChqdW1kYzJjcwARABCAAACqADibcQNjMnBhLnNpZ25hdHVyZQAAABAIY2JvctKEWQISogEmGCFZAgowggIGMIIBjaADAgECAhRA5aAK7sI50L64g/oGQgU9Z1UTADAKBggqhkjOPQQDAzBJMRcwFQYDVQQKEw5BbnRocm9waWMsIFBCQzEuMCwGA1UEAxMlQW50aHJvcGljIENvbnRlbnQgQ3JlZGVudGlhbHMgUm9vdCBDQTAeFw0yNjA4MDcxODQzNTZaFw0yODA4MDYxOTQzNTZaMEQxFzAVBgNVBAoTDkFudGhyb3BpYywgUEJDMSkwJwYDVQQDEyBBbnRocm9waWMgQ2xhdWRlIENvbnRlbnQgU2lnbmluZzBZMBMGByqGSM49AgEGCCqGSM49AwEHA0IABJh6CmvLUBgFFNU0vUKlOVtE6djd17L5SuwX0LemFisBM3dkd/3cyjxFA3Qo5S46fX0/ihY0VZ7mfb9KF703t5OjWDBWMA4GA1UdDwEB/wQEAwIHgDAVBgNVHSUEDjAMBgorBgEEAYPoXgIBMAwGA1UdEwEB/wQCMAAwHwYDVR0jBBgwFoAUzlHiBIFOZFsj+OPEz5o+nMHXXMIwCgYIKoZIzj0EAwMDZwAwZAIwMXMdFJ4BetLLVY7ORuE9noqbbAZOZn/aArXyTwFAZfKrPzxF2vPoJNf1+UCdg1XGAjBwX1zd9WGqYkqmL5SFqw1QySjr1zJfpJM9+1rdDwSPLMOPOjKuiXjoU/pUUeG9RwmhY3BhZFkNngAAAAAAAAAAAAAAAAAAAAAAAAAAAAAAAAAAAAAAAAAAAAAAAAAAAAAAAAAAAAAAAAAAAAAAAAAAAAAAAAAAAAAAAAAAAAAAAAAAAAAAAAAAAAAAAAAAAAAAAAAAAAAAAAAAAAAAAAAAAAAAAAAAAAAAAAAAAAAAAAAAAAAAAAAAAAAAAAAAAAAAAAAAAAAAAAAAAAAAAAAAAAAAAAAAAAAAAAAAAAAAAAAAAAAAAAAAAAAAAAAAAAAAAAAAAAAAAAAAAAAAAAAAAAAAAAAAAAAAAAAAAAAAAAAAAAAAAAAAAAAAAAAAAAAAAAAAAAAAAAAAAAAAAAAAAAAAAAAAAAAAAAAAAAAAAAAAAAAAAAAAAAAAAAAAAAAAAAAAAAAAAAAAAAAAAAAAAAAAAAAAAAAAAAAAAAAAAAAAAAAAAAAAAAAAAAAAAAAAAAAAAAAAAAAAAAAAAAAAAAAAAAAAAAAAAAAAAAAAAAAAAAAAAAAAAAAAAAAAAAAAAAAAAAAAAAAAAAAAAAAAAAAAAAAAAAAAAAAAAAAAAAAAAAAAAAAAAAAAAAAAAAAAAAAAAAAAAAAAAAAAAAAAAAAAAAAAAAAAAAAAAAAAAAAAAAAAAAAAAAAAAAAAAAAAAAAAAAAAAAAAAAAAAAAAAAAAAAAAAAAAAAAAAAAAAAAAAAAAAAAAAAAAAAAAAAAAAAAAAAAAAAAAAAAAAAAAAAAAAAAAAAAAAAAAAAAAAAAAAAAAAAAAAAAAAAAAAAAAAAAAAAAAAAAAAAAAAAAAAAAAAAAAAAAAAAAAAAAAAAAAAAAAAAAAAAAAAAAAAAAAAAAAAAAAAAAAAAAAAAAAAAAAAAAAAAAAAAAAAAAAAAAAAAAAAAAAAAAAAAAAAAAAAAAAAAAAAAAAAAAAAAAAAAAAAAAAAAAAAAAAAAAAAAAAAAAAAAAAAAAAAAAAAAAAAAAAAAAAAAAAAAAAAAAAAAAAAAAAAAAAAAAAAAAAAAAAAAAAAAAAAAAAAAAAAAAAAAAAAAAAAAAAAAAAAAAAAAAAAAAAAAAAAAAAAAAAAAAAAAAAAAAAAAAAAAAAAAAAAAAAAAAAAAAAAAAAAAAAAAAAAAAAAAAAAAAAAAAAAAAAAAAAAAAAAAAAAAAAAAAAAAAAAAAAAAAAAAAAAAAAAAAAAAAAAAAAAAAAAAAAAAAAAAAAAAAAAAAAAAAAAAAAAAAAAAAAAAAAAAAAAAAAAAAAAAAAAAAAAAAAAAAAAAAAAAAAAAAAAAAAAAAAAAAAAAAAAAAAAAAAAAAAAAAAAAAAAAAAAAAAAAAAAAAAAAAAAAAAAAAAAAAAAAAAAAAAAAAAAAAAAAAAAAAAAAAAAAAAAAAAAAAAAAAAAAAAAAAAAAAAAAAAAAAAAAAAAAAAAAAAAAAAAAAAAAAAAAAAAAAAAAAAAAAAAAAAAAAAAAAAAAAAAAAAAAAAAAAAAAAAAAAAAAAAAAAAAAAAAAAAAAAAAAAAAAAAAAAAAAAAAAAAAAAAAAAAAAAAAAAAAAAAAAAAAAAAAAAAAAAAAAAAAAAAAAAAAAAAAAAAAAAAAAAAAAAAAAAAAAAAAAAAAAAAAAAAAAAAAAAAAAAAAAAAAAAAAAAAAAAAAAAAAAAAAAAAAAAAAAAAAAAAAAAAAAAAAAAAAAAAAAAAAAAAAAAAAAAAAAAAAAAAAAAAAAAAAAAAAAAAAAAAAAAAAAAAAAAAAAAAAAAAAAAAAAAAAAAAAAAAAAAAAAAAAAAAAAAAAAAAAAAAAAAAAAAAAAAAAAAAAAAAAAAAAAAAAAAAAAAAAAAAAAAAAAAAAAAAAAAAAAAAAAAAAAAAAAAAAAAAAAAAAAAAAAAAAAAAAAAAAAAAAAAAAAAAAAAAAAAAAAAAAAAAAAAAAAAAAAAAAAAAAAAAAAAAAAAAAAAAAAAAAAAAAAAAAAAAAAAAAAAAAAAAAAAAAAAAAAAAAAAAAAAAAAAAAAAAAAAAAAAAAAAAAAAAAAAAAAAAAAAAAAAAAAAAAAAAAAAAAAAAAAAAAAAAAAAAAAAAAAAAAAAAAAAAAAAAAAAAAAAAAAAAAAAAAAAAAAAAAAAAAAAAAAAAAAAAAAAAAAAAAAAAAAAAAAAAAAAAAAAAAAAAAAAAAAAAAAAAAAAAAAAAAAAAAAAAAAAAAAAAAAAAAAAAAAAAAAAAAAAAAAAAAAAAAAAAAAAAAAAAAAAAAAAAAAAAAAAAAAAAAAAAAAAAAAAAAAAAAAAAAAAAAAAAAAAAAAAAAAAAAAAAAAAAAAAAAAAAAAAAAAAAAAAAAAAAAAAAAAAAAAAAAAAAAAAAAAAAAAAAAAAAAAAAAAAAAAAAAAAAAAAAAAAAAAAAAAAAAAAAAAAAAAAAAAAAAAAAAAAAAAAAAAAAAAAAAAAAAAAAAAAAAAAAAAAAAAAAAAAAAAAAAAAAAAAAAAAAAAAAAAAAAAAAAAAAAAAAAAAAAAAAAAAAAAAAAAAAAAAAAAAAAAAAAAAAAAAAAAAAAAAAAAAAAAAAAAAAAAAAAAAAAAAAAAAAAAAAAAAAAAAAAAAAAAAAAAAAAAAAAAAAAAAAAAAAAAAAAAAAAAAAAAAAAAAAAAAAAAAAAAAAAAAAAAAAAAAAAAAAAAAAAAAAAAAAAAAAAAAAAAAAAAAAAAAAAAAAAAAAAAAAAAAAAAAAAAAAAAAAAAAAAAAAAAAAAAAAAAAAAAAAAAAAAAAAAAAAAAAAAAAAAAAAAAAAAAAAAAAAAAAAAAAAAAAAAAAAAAAAAAAAAAAAAAAAAAAAAAAAAAAAAAAAAAAAAAAAAAAAAAAAAAAAAAAAAAAAAAAAAAAAAAAAAAAAAAAAAAAAAAAAAAAAAAAAAAAAAAAAAAAAAAAAAAAAAAAAAAAAAAAAAAAAAAAAAAAAAAAAAAAAAAAAAAAAAAAAAAAAAAAAAAAAAAAAAAAAAAAAAAAAAAAAAAAAAAAAAAAAAAAAAAAAAAAAAAAAAAAAAAAAAAAAAAAAAAAAAAAAAAAAAAAAAAAAAAAAAAAAAAAAAAAAAAAAAAAAAAAAAAAAAAAAAAAAAAAAAAAAAAAAAAAAAAAAAAAAAAAAAAAAAAAAAAAAAAAAAAAAAAAAAAAAAAAAAAAAAAAAAAAAAAAAAAAAAAAAAAAAAAAAAAAAAAAAAAAAAAAAAAAAAAAAAAAAAAAAAAAAAAAAAAAAAAAAAAAAAAAAAAAAAAAAAAAAAAAAAAAAAAAAAAAAAAAAAAAAAAAAAAAAAAAAAAAAAAAAAAAAAAAAAAAAAAAAAAAAAAAAAAAAAAAAAAAAAAAAAAAAAAAAAAAAAAAAAAAAAAAAAAAAAAAAAAAAAAAAAAAAAAAAAAAAAAAAAAAAAAAAAAAAAAAAAAAAAAAAAAAAAAAAAAAAAAAAAAAAAAAAAAAAAAAAAAAAAAAAAAAAAAAAAAAAAAAAAAAAAAAAAAAAAAAAAAAAAAAAAAAAAAAAAAAAAAAAAAAAAAAAAAAAAAAAAAAAAAAAAAAAAAAAAAAAAAAAAAAAAAAAAAAAAAAAAAAAAAAAAAAAAAAAAAAAAAAAAAAAAAAAAAAAAAAAAAAAAAAAAAAAAAAAAAAAAAAAAAAAAAAAAAAAAAAAAAAAAAAAAAAAAAAAAAAAAAAAAAAAAAAAAAAAAAAAAAAAAAAAAAAAAAAAAAAAAAAAAAAAAAAAAAAAAAAAAAAAAAAAAAAAAAAAAAAAAAAAAAAAAAAAAAAAAAAAAAAAAAAAAAAAAAAAAAAAAAAAAAAAAAAAAAAAAAAAAAAAAAAAAAAAAAAAAAAAAAAAAAAAAAAAAAAAAAAAAAAAAAAAAAAAAAAAAAAAAAAAAAAAAAAAAAAAAAAAAAAAAAAAAAAAAAAAAAAAAAAAAAAAAAAAAAAAAAAAAAAAAAAAAAAAAAAAAAAAAAAAAAAAAAAAAAAAAAAAAAAAAAAAAAAAAAAAAAAAAAAAAAAAAAAAAAAAAAAAAAAAAAAAAAAAAAAAAAAAAAAAAAAAAAAAAAAAAAAAAAAAAAAAAAAAAAAAAAAAAAAAAAAAAAAAAAAAAAAAAAAAAAAAAAAAAAAAAAAAAAAAAAAAAAAAAAAAAAAAAAAAAAAAAAAAAAAAAAAAAAAAAAAAAAAAAAAAAAAAAAAAAAAAAAAAAAAAAAAAAAAAAAAAAAAAAAAAAAAAAAAAAAAAAAAAAAAAAAAAAAAAAAAAAAAAAAAAAAAAAAAAAAAAAAAAAAAAAAAAAAAAAAAAAAAAAAAAAAAAAAAAAAAAAAAAAAAAAAAAAAAAAAAAAAAAAAAAAAAAAAAAAAAAAAAAAAAAAAAAAAAAAAAAAAAAAAAAAAAAAAAAAAAAAAAAAAAAAAAAAAAAAAAAAAAAAAAAAAAAAAAAAAAAAAAAAAAAAAAAAAAAAAAAAAAAAAAAAAAAAAAAAAAAAAAAAAAAAAAAAAAAAAAAAAAAAAAAAAAAAAAAAAAAAAAAAAAAAAAAAAAAAAAAAAAAAAAAAAAAAAAAAAAAAAAAAAAAAAAAAAAAAAAAAAAAAAAAAAAAAAAAAAAAAAAAAAAAAAAAAAAAAAAAAAAAAAAAAAAAAAAAAAAAAAAAAAAAAAAAAAAAAAAAAAAAAAAAAAAAAAAAAAAAAAAAAAAAAAAAAAAAAAAAAAAAAPZYQCByrFJmq/mt+WFIpnzLnLBMHfO0JRTLI/2PfPBByZ4llfmt1ZqhuUSO69ZmfMQyVNFaqPZC6kvYYVbYYSSPWew=</c2pa:manifest></metadata><defs><linearGradient id="bg" x1="0" y1="0" x2="0" y2="1"><stop offset="0" stop-color="#3c5468"/><stop offset="1" stop-color="#2a3b4a"/></linearGradient><radialGradient id="gl" cx="0.5" cy="0.45" r="0.42"><stop offset="0" stop-color="#6d8aa3" stop-opacity="0.35"/><stop offset="1" stop-color="#6d8aa3" stop-opacity="0"/></radialGradient><filter id="bl" x="-50%" y="-50%" width="200%" height="200%"><feGaussianBlur stdDeviation="16.00"/></filter><linearGradient id="ff" x1="0" y1="0" x2="0" y2="1"><stop offset="0" stop-color="#d8b471"/><stop offset="1" stop-color="#c9a25e"/></linearGradient><linearGradient id="rf" x1="0" y1="0" x2="0" y2="1"><stop offset="0" stop-color="#b8914f"/><stop offset="1" stop-color="#a47f42"/></linearGradient><clipPath id="pl"><path d="M924.00,512.00 L923.99,573.83 L923.97,593.59 L923.94,607.95 L923.90,619.65 L923.84,629.70 L923.77,638.60 L923.69,646.64 L923.60,654.01 L923.49,660.85 L923.37,667.24 L923.24,673.26 L923.10,678.95 L922.94,684.36 L922.77,689.52 L922.59,694.46 L922.39,699.21 L922.18,703.77 L921.96,708.17 L921.73,712.42 L921.48,716.53 L921.23,720.52 L920.96,724.39 L920.67,728.15 L920.37,731.81 L920.07,735.37 L919.74,738.85 L919.41,742.23 L919.06,745.54 L918.70,748.78 L918.33,751.94 L917.94,755.03 L917.54,758.06 L917.13,761.02 L916.70,763.93 L916.26,766.77 L915.81,769.57 L915.35,772.31 L914.87,775.00 L914.38,777.64 L913.88,780.24 L913.36,782.79 L912.83,785.29 L912.28,787.76 L911.73,790.18 L911.16,792.56 L910.57,794.91 L909.98,797.22 L909.36,799.49 L908.74,801.73 L908.10,803.93 L907.45,806.10 L906.79,808.23 L906.11,810.34 L905.41,812.41 L904.71,814.45 L903.99,816.47 L903.25,818.45 L902.50,820.41 L901.74,822.34 L900.96,824.24 L900.17,826.11 L899.37,827.96 L898.55,829.78 L897.71,831.58 L896.87,833.35 L896.00,835.10 L895.12,836.83 L894.23,838.53 L893.32,840.21 L892.40,841.86 L891.46,843.50 L890.51,845.11 L889.54,846.70 L888.56,848.27 L887.56,849.81 L886.55,851.34 L885.52,852.85 L884.48,854.33 L883.42,855.80 L882.34,857.24 L881.25,858.67 L880.14,860.08 L879.01,861.46 L877.87,862.83 L876.71,864.18 L875.54,865.52 L874.34,866.83 L873.14,868.13 L871.91,869.41 L870.67,870.67 L869.41,871.91 L868.13,873.14 L866.83,874.34 L865.52,875.54 L864.18,876.71 L862.83,877.87 L861.46,879.01 L860.08,880.14 L858.67,881.25 L857.24,882.34 L855.80,883.42 L854.33,884.48 L852.85,885.52 L851.34,886.55 L849.81,887.56 L848.27,888.56 L846.70,889.54 L845.11,890.51 L843.50,891.46 L841.86,892.40 L840.21,893.32 L838.53,894.23 L836.83,895.12 L835.10,896.00 L833.35,896.87 L831.58,897.71 L829.78,898.55 L827.96,899.37 L826.11,900.17 L824.24,900.96 L822.34,901.74 L820.41,902.50 L818.45,903.25 L816.47,903.99 L814.45,904.71 L812.41,905.41 L810.34,906.11 L808.23,906.79 L806.10,907.45 L803.93,908.10 L801.73,908.74 L799.49,909.36 L797.22,909.98 L794.91,910.57 L792.56,911.16 L790.18,911.73 L787.76,912.28 L785.29,912.83 L782.79,913.36 L780.24,913.88 L777.64,914.38 L775.00,914.87 L772.31,915.35 L769.57,915.81 L766.77,916.26 L763.93,916.70 L761.02,917.13 L758.06,917.54 L755.03,917.94 L751.94,918.33 L748.78,918.70 L745.54,919.06 L742.23,919.41 L738.85,919.74 L735.37,920.07 L731.81,920.37 L728.15,920.67 L724.39,920.96 L720.52,921.23 L716.53,921.48 L712.42,921.73 L708.17,921.96 L703.77,922.18 L699.21,922.39 L694.46,922.59 L689.52,922.77 L684.36,922.94 L678.95,923.10 L673.26,923.24 L667.24,923.37 L660.85,923.49 L654.01,923.60 L646.64,923.69 L638.60,923.77 L629.70,923.84 L619.65,923.90 L607.95,923.94 L593.59,923.97 L573.83,923.99 L512.00,924.00 L450.17,923.99 L430.41,923.97 L416.05,923.94 L404.35,923.90 L394.30,923.84 L385.40,923.77 L377.36,923.69 L369.99,923.60 L363.15,923.49 L356.76,923.37 L350.74,923.24 L345.05,923.10 L339.64,922.94 L334.48,922.77 L329.54,922.59 L324.79,922.39 L320.23,922.18 L315.83,921.96 L311.58,921.73 L307.47,921.48 L303.48,921.23 L299.61,920.96 L295.85,920.67 L292.19,920.37 L288.63,920.07 L285.15,919.74 L281.77,919.41 L278.46,919.06 L275.22,918.70 L272.06,918.33 L268.97,917.94 L265.94,917.54 L262.98,917.13 L260.07,916.70 L257.23,916.26 L254.43,915.81 L251.69,915.35 L249.00,914.87 L246.36,914.38 L243.76,913.88 L241.21,913.36 L238.71,912.83 L236.24,912.28 L233.82,911.73 L231.44,911.16 L229.09,910.57 L226.78,909.98 L224.51,909.36 L222.27,908.74 L220.07,908.10 L217.90,907.45 L215.77,906.79 L213.66,906.11 L211.59,905.41 L209.55,904.71 L207.53,903.99 L205.55,903.25 L203.59,902.50 L201.66,901.74 L199.76,900.96 L197.89,900.17 L196.04,899.37 L194.22,898.55 L192.42,897.71 L190.65,896.87 L188.90,896.00 L187.17,895.12 L185.47,894.23 L183.79,893.32 L182.14,892.40 L180.50,891.46 L178.89,890.51 L177.30,889.54 L175.73,888.56 L174.19,887.56 L172.66,886.55 L171.15,885.52 L169.67,884.48 L168.20,883.42 L166.76,882.34 L165.33,881.25 L163.92,880.14 L162.54,879.01 L161.17,877.87 L159.82,876.71 L158.48,875.54 L157.17,874.34 L155.87,873.14 L154.59,871.91 L153.33,870.67 L152.09,869.41 L150.86,868.13 L149.66,866.83 L148.46,865.52 L147.29,864.18 L146.13,862.83 L144.99,861.46 L143.86,860.08 L142.75,858.67 L141.66,857.24 L140.58,855.80 L139.52,854.33 L138.48,852.85 L137.45,851.34 L136.44,849.81 L135.44,848.27 L134.46,846.70 L133.49,845.11 L132.54,843.50 L131.60,841.86 L130.68,840.21 L129.77,838.53 L128.88,836.83 L128.00,835.10 L127.13,833.35 L126.29,831.58 L125.45,829.78 L124.63,827.96 L123.83,826.11 L123.04,824.24 L122.26,822.34 L121.50,820.41 L120.75,818.45 L120.01,816.47 L119.29,814.45 L118.59,812.41 L117.89,810.34 L117.21,808.23 L116.55,806.10 L115.90,803.93 L115.26,801.73 L114.64,799.49 L114.02,797.22 L113.43,794.91 L112.84,792.56 L112.27,790.18 L111.72,787.76 L111.17,785.29 L110.64,782.79 L110.12,780.24 L109.62,777.64 L109.13,775.00 L108.65,772.31 L108.19,769.57 L107.74,766.77 L107.30,763.93 L106.87,761.02 L106.46,758.06 L106.06,755.03 L105.67,751.94 L105.30,748.78 L104.94,745.54 L104.59,742.23 L104.26,738.85 L103.93,735.37 L103.63,731.81 L103.33,728.15 L103.04,724.39 L102.77,720.52 L102.52,716.53 L102.27,712.42 L102.04,708.17 L101.82,703.77 L101.61,699.21 L101.41,694.46 L101.23,689.52 L101.06,684.36 L100.90,678.95 L100.76,673.26 L100.63,667.24 L100.51,660.85 L100.40,654.01 L100.31,646.64 L100.23,638.60 L100.16,629.70 L100.10,619.65 L100.06,607.95 L100.03,593.59 L100.01,573.83 L100.00,512.00 L100.01,450.17 L100.03,430.41 L100.06,416.05 L100.10,404.35 L100.16,394.30 L100.23,385.40 L100.31,377.36 L100.40,369.99 L100.51,363.15 L100.63,356.76 L100.76,350.74 L100.90,345.05 L101.06,339.64 L101.23,334.48 L101.41,329.54 L101.61,324.79 L101.82,320.23 L102.04,315.83 L102.27,311.58 L102.52,307.47 L102.77,303.48 L103.04,299.61 L103.33,295.85 L103.63,292.19 L103.93,288.63 L104.26,285.15 L104.59,281.77 L104.94,278.46 L105.30,275.22 L105.67,272.06 L106.06,268.97 L106.46,265.94 L106.87,262.98 L107.30,260.07 L107.74,257.23 L108.19,254.43 L108.65,251.69 L109.13,249.00 L109.62,246.36 L110.12,243.76 L110.64,241.21 L111.17,238.71 L111.72,236.24 L112.27,233.82 L112.84,231.44 L113.43,229.09 L114.02,226.78 L114.64,224.51 L115.26,222.27 L115.90,220.07 L116.55,217.90 L117.21,215.77 L117.89,213.66 L118.59,211.59 L119.29,209.55 L120.01,207.53 L120.75,205.55 L121.50,203.59 L122.26,201.66 L123.04,199.76 L123.83,197.89 L124.63,196.04 L125.45,194.22 L126.29,192.42 L127.13,190.65 L128.00,188.90 L128.88,187.17 L129.77,185.47 L130.68,183.79 L131.60,182.14 L132.54,180.50 L133.49,178.89 L134.46,177.30 L135.44,175.73 L136.44,174.19 L137.45,172.66 L138.48,171.15 L139.52,169.67 L140.58,168.20 L141.66,166.76 L142.75,165.33 L143.86,163.92 L144.99,162.54 L146.13,161.17 L147.29,159.82 L148.46,158.48 L149.66,157.17 L150.86,155.87 L152.09,154.59 L153.33,153.33 L154.59,152.09 L155.87,150.86 L157.17,149.66 L158.48,148.46 L159.82,147.29 L161.17,146.13 L162.54,144.99 L163.92,143.86 L165.33,142.75 L166.76,141.66 L168.20,140.58 L169.67,139.52 L171.15,138.48 L172.66,137.45 L174.19,136.44 L175.73,135.44 L177.30,134.46 L178.89,133.49 L180.50,132.54 L182.14,131.60 L183.79,130.68 L185.47,129.77 L187.17,128.88 L188.90,128.00 L190.65,127.13 L192.42,126.29 L194.22,125.45 L196.04,124.63 L197.89,123.83 L199.76,123.04 L201.66,122.26 L203.59,121.50 L205.55,120.75 L207.53,120.01 L209.55,119.29 L211.59,118.59 L213.66,117.89 L215.77,117.21 L217.90,116.55 L220.07,115.90 L222.27,115.26 L224.51,114.64 L226.78,114.02 L229.09,113.43 L231.44,112.84 L233.82,112.27 L236.24,111.72 L238.71,111.17 L241.21,110.64 L243.76,110.12 L246.36,109.62 L249.00,109.13 L251.69,108.65 L254.43,108.19 L257.23,107.74 L260.07,107.30 L262.98,106.87 L265.94,106.46 L268.97,106.06 L272.06,105.67 L275.22,105.30 L278.46,104.94 L281.77,104.59 L285.15,104.26 L288.63,103.93 L292.19,103.63 L295.85,103.33 L299.61,103.04 L303.48,102.77 L307.47,102.52 L311.58,102.27 L315.83,102.04 L320.23,101.82 L324.79,101.61 L329.54,101.41 L334.48,101.23 L339.64,101.06 L345.05,100.90 L350.74,100.76 L356.76,100.63 L363.15,100.51 L369.99,100.40 L377.36,100.31 L385.40,100.23 L394.30,100.16 L404.35,100.10 L416.05,100.06 L430.41,100.03 L450.17,100.01 L512.00,100.00 L573.83,100.01 L593.59,100.03 L607.95,100.06 L619.65,100.10 L629.70,100.16 L638.60,100.23 L646.64,100.31 L654.01,100.40 L660.85,100.51 L667.24,100.63 L673.26,100.76 L678.95,100.90 L684.36,101.06 L689.52,101.23 L694.46,101.41 L699.21,101.61 L703.77,101.82 L708.17,102.04 L712.42,102.27 L716.53,102.52 L720.52,102.77 L724.39,103.04 L728.15,103.33 L731.81,103.63 L735.37,103.93 L738.85,104.26 L742.23,104.59 L745.54,104.94 L748.78,105.30 L751.94,105.67 L755.03,106.06 L758.06,106.46 L761.02,106.87 L763.93,107.30 L766.77,107.74 L769.57,108.19 L772.31,108.65 L775.00,109.13 L777.64,109.62 L780.24,110.12 L782.79,110.64 L785.29,111.17 L787.76,111.72 L790.18,112.27 L792.56,112.84 L794.91,113.43 L797.22,114.02 L799.49,114.64 L801.73,115.26 L803.93,115.90 L806.10,116.55 L808.23,117.21 L810.34,117.89 L812.41,118.59 L814.45,119.29 L816.47,120.01 L818.45,120.75 L820.41,121.50 L822.34,122.26 L824.24,123.04 L826.11,123.83 L827.96,124.63 L829.78,125.45 L831.58,126.29 L833.35,127.13 L835.10,128.00 L836.83,128.88 L838.53,129.77 L840.21,130.68 L841.86,131.60 L843.50,132.54 L845.11,133.49 L846.70,134.46 L848.27,135.44 L849.81,136.44 L851.34,137.45 L852.85,138.48 L854.33,139.52 L855.80,140.58 L857.24,141.66 L858.67,142.75 L860.08,143.86 L861.46,144.99 L862.83,146.13 L864.18,147.29 L865.52,148.46 L866.83,149.66 L868.13,150.86 L869.41,152.09 L870.67,153.33 L871.91,154.59 L873.14,155.87 L874.34,157.17 L875.54,158.48 L876.71,159.82 L877.87,161.17 L879.01,162.54 L880.14,163.92 L881.25,165.33 L882.34,166.76 L883.42,168.20 L884.48,169.67 L885.52,171.15 L886.55,172.66 L887.56,174.19 L888.56,175.73 L889.54,177.30 L890.51,178.89 L891.46,180.50 L892.40,182.14 L893.32,183.79 L894.23,185.47 L895.12,187.17 L896.00,188.90 L896.87,190.65 L897.71,192.42 L898.55,194.22 L899.37,196.04 L900.17,197.89 L900.96,199.76 L901.74,201.66 L902.50,203.59 L903.25,205.55 L903.99,207.53 L904.71,209.55 L905.41,211.59 L906.11,213.66 L906.79,215.77 L907.45,217.90 L908.10,220.07 L908.74,222.27 L909.36,224.51 L909.98,226.78 L910.57,229.09 L911.16,231.44 L911.73,233.82 L912.28,236.24 L912.83,238.71 L913.36,241.21 L913.88,243.76 L914.38,246.36 L914.87,249.00 L915.35,251.69 L915.81,254.43 L916.26,257.23 L916.70,260.07 L917.13,262.98 L917.54,265.94 L917.94,268.97 L918.33,272.06 L918.70,275.22 L919.06,278.46 L919.41,281.77 L919.74,285.15 L920.07,288.63 L920.37,292.19 L920.67,295.85 L920.96,299.61 L921.23,303.48 L921.48,307.47 L921.73,311.58 L921.96,315.83 L922.18,320.23 L922.39,324.79 L922.59,329.54 L922.77,334.48 L922.94,339.64 L923.10,345.05 L923.24,350.74 L923.37,356.76 L923.49,363.15 L923.60,369.99 L923.69,377.36 L923.77,385.40 L923.84,394.30 L923.90,404.35 L923.94,416.05 L923.97,430.41 L923.99,450.17 Z"/></clipPath></defs><path d="M924.00,512.00 L923.99,573.83 L923.97,593.59 L923.94,607.95 L923.90,619.65 L923.84,629.70 L923.77,638.60 L923.69,646.64 L923.60,654.01 L923.49,660.85 L923.37,667.24 L923.24,673.26 L923.10,678.95 L922.94,684.36 L922.77,689.52 L922.59,694.46 L922.39,699.21 L922.18,703.77 L921.96,708.17 L921.73,712.42 L921.48,716.53 L921.23,720.52 L920.96,724.39 L920.67,728.15 L920.37,731.81 L920.07,735.37 L919.74,738.85 L919.41,742.23 L919.06,745.54 L918.70,748.78 L918.33,751.94 L917.94,755.03 L917.54,758.06 L917.13,761.02 L916.70,763.93 L916.26,766.77 L915.81,769.57 L915.35,772.31 L914.87,775.00 L914.38,777.64 L913.88,780.24 L913.36,782.79 L912.83,785.29 L912.28,787.76 L911.73,790.18 L911.16,792.56 L910.57,794.91 L909.98,797.22 L909.36,799.49 L908.74,801.73 L908.10,803.93 L907.45,806.10 L906.79,808.23 L906.11,810.34 L905.41,812.41 L904.71,814.45 L903.99,816.47 L903.25,818.45 L902.50,820.41 L901.74,822.34 L900.96,824.24 L900.17,826.11 L899.37,827.96 L898.55,829.78 L897.71,831.58 L896.87,833.35 L896.00,835.10 L895.12,836.83 L894.23,838.53 L893.32,840.21 L892.40,841.86 L891.46,843.50 L890.51,845.11 L889.54,846.70 L888.56,848.27 L887.56,849.81 L886.55,851.34 L885.52,852.85 L884.48,854.33 L883.42,855.80 L882.34,857.24 L881.25,858.67 L880.14,860.08 L879.01,861.46 L877.87,862.83 L876.71,864.18 L875.54,865.52 L874.34,866.83 L873.14,868.13 L871.91,869.41 L870.67,870.67 L869.41,871.91 L868.13,873.14 L866.83,874.34 L865.52,875.54 L864.18,876.71 L862.83,877.87 L861.46,879.01 L860.08,880.14 L858.67,881.25 L857.24,882.34 L855.80,883.42 L854.33,884.48 L852.85,885.52 L851.34,886.55 L849.81,887.56 L848.27,888.56 L846.70,889.54 L845.11,890.51 L843.50,891.46 L841.86,892.40 L840.21,893.32 L838.53,894.23 L836.83,895.12 L835.10,896.00 L833.35,896.87 L831.58,897.71 L829.78,898.55 L827.96,899.37 L826.11,900.17 L824.24,900.96 L822.34,901.74 L820.41,902.50 L818.45,903.25 L816.47,903.99 L814.45,904.71 L812.41,905.41 L810.34,906.11 L808.23,906.79 L806.10,907.45 L803.93,908.10 L801.73,908.74 L799.49,909.36 L797.22,909.98 L794.91,910.57 L792.56,911.16 L790.18,911.73 L787.76,912.28 L785.29,912.83 L782.79,913.36 L780.24,913.88 L777.64,914.38 L775.00,914.87 L772.31,915.35 L769.57,915.81 L766.77,916.26 L763.93,916.70 L761.02,917.13 L758.06,917.54 L755.03,917.94 L751.94,918.33 L748.78,918.70 L745.54,919.06 L742.23,919.41 L738.85,919.74 L735.37,920.07 L731.81,920.37 L728.15,920.67 L724.39,920.96 L720.52,921.23 L716.53,921.48 L712.42,921.73 L708.17,921.96 L703.77,922.18 L699.21,922.39 L694.46,922.59 L689.52,922.77 L684.36,922.94 L678.95,923.10 L673.26,923.24 L667.24,923.37 L660.85,923.49 L654.01,923.60 L646.64,923.69 L638.60,923.77 L629.70,923.84 L619.65,923.90 L607.95,923.94 L593.59,923.97 L573.83,923.99 L512.00,924.00 L450.17,923.99 L430.41,923.97 L416.05,923.94 L404.35,923.90 L394.30,923.84 L385.40,923.77 L377.36,923.69 L369.99,923.60 L363.15,923.49 L356.76,923.37 L350.74,923.24 L345.05,923.10 L339.64,922.94 L334.48,922.77 L329.54,922.59 L324.79,922.39 L320.23,922.18 L315.83,921.96 L311.58,921.73 L307.47,921.48 L303.48,921.23 L299.61,920.96 L295.85,920.67 L292.19,920.37 L288.63,920.07 L285.15,919.74 L281.77,919.41 L278.46,919.06 L275.22,918.70 L272.06,918.33 L268.97,917.94 L265.94,917.54 L262.98,917.13 L260.07,916.70 L257.23,916.26 L254.43,915.81 L251.69,915.35 L249.00,914.87 L246.36,914.38 L243.76,913.88 L241.21,913.36 L238.71,912.83 L236.24,912.28 L233.82,911.73 L231.44,911.16 L229.09,910.57 L226.78,909.98 L224.51,909.36 L222.27,908.74 L220.07,908.10 L217.90,907.45 L215.77,906.79 L213.66,906.11 L211.59,905.41 L209.55,904.71 L207.53,903.99 L205.55,903.25 L203.59,902.50 L201.66,901.74 L199.76,900.96 L197.89,900.17 L196.04,899.37 L194.22,898.55 L192.42,897.71 L190.65,896.87 L188.90,896.00 L187.17,895.12 L185.47,894.23 L183.79,893.32 L182.14,892.40 L180.50,891.46 L178.89,890.51 L177.30,889.54 L175.73,888.56 L174.19,887.56 L172.66,886.55 L171.15,885.52 L169.67,884.48 L168.20,883.42 L166.76,882.34 L165.33,881.25 L163.92,880.14 L162.54,879.01 L161.17,877.87 L159.82,876.71 L158.48,875.54 L157.17,874.34 L155.87,873.14 L154.59,871.91 L153.33,870.67 L152.09,869.41 L150.86,868.13 L149.66,866.83 L148.46,865.52 L147.29,864.18 L146.13,862.83 L144.99,861.46 L143.86,860.08 L142.75,858.67 L141.66,857.24 L140.58,855.80 L139.52,854.33 L138.48,852.85 L137.45,851.34 L136.44,849.81 L135.44,848.27 L134.46,846.70 L133.49,845.11 L132.54,843.50 L131.60,841.86 L130.68,840.21 L129.77,838.53 L128.88,836.83 L128.00,835.10 L127.13,833.35 L126.29,831.58 L125.45,829.78 L124.63,827.96 L123.83,826.11 L123.04,824.24 L122.26,822.34 L121.50,820.41 L120.75,818.45 L120.01,816.47 L119.29,814.45 L118.59,812.41 L117.89,810.34 L117.21,808.23 L116.55,806.10 L115.90,803.93 L115.26,801.73 L114.64,799.49 L114.02,797.22 L113.43,794.91 L112.84,792.56 L112.27,790.18 L111.72,787.76 L111.17,785.29 L110.64,782.79 L110.12,780.24 L109.62,777.64 L109.13,775.00 L108.65,772.31 L108.19,769.57 L107.74,766.77 L107.30,763.93 L106.87,761.02 L106.46,758.06 L106.06,755.03 L105.67,751.94 L105.30,748.78 L104.94,745.54 L104.59,742.23 L104.26,738.85 L103.93,735.37 L103.63,731.81 L103.33,728.15 L103.04,724.39 L102.77,720.52 L102.52,716.53 L102.27,712.42 L102.04,708.17 L101.82,703.77 L101.61,699.21 L101.41,694.46 L101.23,689.52 L101.06,684.36 L100.90,678.95 L100.76,673.26 L100.63,667.24 L100.51,660.85 L100.40,654.01 L100.31,646.64 L100.23,638.60 L100.16,629.70 L100.10,619.65 L100.06,607.95 L100.03,593.59 L100.01,573.83 L100.00,512.00 L100.01,450.17 L100.03,430.41 L100.06,416.05 L100.10,404.35 L100.16,394.30 L100.23,385.40 L100.31,377.36 L100.40,369.99 L100.51,363.15 L100.63,356.76 L100.76,350.74 L100.90,345.05 L101.06,339.64 L101.23,334.48 L101.41,329.54 L101.61,324.79 L101.82,320.23 L102.04,315.83 L102.27,311.58 L102.52,307.47 L102.77,303.48 L103.04,299.61 L103.33,295.85 L103.63,292.19 L103.93,288.63 L104.26,285.15 L104.59,281.77 L104.94,278.46 L105.30,275.22 L105.67,272.06 L106.06,268.97 L106.46,265.94 L106.87,262.98 L107.30,260.07 L107.74,257.23 L108.19,254.43 L108.65,251.69 L109.13,249.00 L109.62,246.36 L110.12,243.76 L110.64,241.21 L111.17,238.71 L111.72,236.24 L112.27,233.82 L112.84,231.44 L113.43,229.09 L114.02,226.78 L114.64,224.51 L115.26,222.27 L115.90,220.07 L116.55,217.90 L117.21,215.77 L117.89,213.66 L118.59,211.59 L119.29,209.55 L120.01,207.53 L120.75,205.55 L121.50,203.59 L122.26,201.66 L123.04,199.76 L123.83,197.89 L124.63,196.04 L125.45,194.22 L126.29,192.42 L127.13,190.65 L128.00,188.90 L128.88,187.17 L129.77,185.47 L130.68,183.79 L131.60,182.14 L132.54,180.50 L133.49,178.89 L134.46,177.30 L135.44,175.73 L136.44,174.19 L137.45,172.66 L138.48,171.15 L139.52,169.67 L140.58,168.20 L141.66,166.76 L142.75,165.33 L143.86,163.92 L144.99,162.54 L146.13,161.17 L147.29,159.82 L148.46,158.48 L149.66,157.17 L150.86,155.87 L152.09,154.59 L153.33,153.33 L154.59,152.09 L155.87,150.86 L157.17,149.66 L158.48,148.46 L159.82,147.29 L161.17,146.13 L162.54,144.99 L163.92,143.86 L165.33,142.75 L166.76,141.66 L168.20,140.58 L169.67,139.52 L171.15,138.48 L172.66,137.45 L174.19,136.44 L175.73,135.44 L177.30,134.46 L178.89,133.49 L180.50,132.54 L182.14,131.60 L183.79,130.68 L185.47,129.77 L187.17,128.88 L188.90,128.00 L190.65,127.13 L192.42,126.29 L194.22,125.45 L196.04,124.63 L197.89,123.83 L199.76,123.04 L201.66,122.26 L203.59,121.50 L205.55,120.75 L207.53,120.01 L209.55,119.29 L211.59,118.59 L213.66,117.89 L215.77,117.21 L217.90,116.55 L220.07,115.90 L222.27,115.26 L224.51,114.64 L226.78,114.02 L229.09,113.43 L231.44,112.84 L233.82,112.27 L236.24,111.72 L238.71,111.17 L241.21,110.64 L243.76,110.12 L246.36,109.62 L249.00,109.13 L251.69,108.65 L254.43,108.19 L257.23,107.74 L260.07,107.30 L262.98,106.87 L265.94,106.46 L268.97,106.06 L272.06,105.67 L275.22,105.30 L278.46,104.94 L281.77,104.59 L285.15,104.26 L288.63,103.93 L292.19,103.63 L295.85,103.33 L299.61,103.04 L303.48,102.77 L307.47,102.52 L311.58,102.27 L315.83,102.04 L320.23,101.82 L324.79,101.61 L329.54,101.41 L334.48,101.23 L339.64,101.06 L345.05,100.90 L350.74,100.76 L356.76,100.63 L363.15,100.51 L369.99,100.40 L377.36,100.31 L385.40,100.23 L394.30,100.16 L404.35,100.10 L416.05,100.06 L430.41,100.03 L450.17,100.01 L512.00,100.00 L573.83,100.01 L593.59,100.03 L607.95,100.06 L619.65,100.10 L629.70,100.16 L638.60,100.23 L646.64,100.31 L654.01,100.40 L660.85,100.51 L667.24,100.63 L673.26,100.76 L678.95,100.90 L684.36,101.06 L689.52,101.23 L694.46,101.41 L699.21,101.61 L703.77,101.82 L708.17,102.04 L712.42,102.27 L716.53,102.52 L720.52,102.77 L724.39,103.04 L728.15,103.33 L731.81,103.63 L735.37,103.93 L738.85,104.26 L742.23,104.59 L745.54,104.94 L748.78,105.30 L751.94,105.67 L755.03,106.06 L758.06,106.46 L761.02,106.87 L763.93,107.30 L766.77,107.74 L769.57,108.19 L772.31,108.65 L775.00,109.13 L777.64,109.62 L780.24,110.12 L782.79,110.64 L785.29,111.17 L787.76,111.72 L790.18,112.27 L792.56,112.84 L794.91,113.43 L797.22,114.02 L799.49,114.64 L801.73,115.26 L803.93,115.90 L806.10,116.55 L808.23,117.21 L810.34,117.89 L812.41,118.59 L814.45,119.29 L816.47,120.01 L818.45,120.75 L820.41,121.50 L822.34,122.26 L824.24,123.04 L826.11,123.83 L827.96,124.63 L829.78,125.45 L831.58,126.29 L833.35,127.13 L835.10,128.00 L836.83,128.88 L838.53,129.77 L840.21,130.68 L841.86,131.60 L843.50,132.54 L845.11,133.49 L846.70,134.46 L848.27,135.44 L849.81,136.44 L851.34,137.45 L852.85,138.48 L854.33,139.52 L855.80,140.58 L857.24,141.66 L858.67,142.75 L860.08,143.86 L861.46,144.99 L862.83,146.13 L864.18,147.29 L865.52,148.46 L866.83,149.66 L868.13,150.86 L869.41,152.09 L870.67,153.33 L871.91,154.59 L873.14,155.87 L874.34,157.17 L875.54,158.48 L876.71,159.82 L877.87,161.17 L879.01,162.54 L880.14,163.92 L881.25,165.33 L882.34,166.76 L883.42,168.20 L884.48,169.67 L885.52,171.15 L886.55,172.66 L887.56,174.19 L888.56,175.73 L889.54,177.30 L890.51,178.89 L891.46,180.50 L892.40,182.14 L893.32,183.79 L894.23,185.47 L895.12,187.17 L896.00,188.90 L896.87,190.65 L897.71,192.42 L898.55,194.22 L899.37,196.04 L900.17,197.89 L900.96,199.76 L901.74,201.66 L902.50,203.59 L903.25,205.55 L903.99,207.53 L904.71,209.55 L905.41,211.59 L906.11,213.66 L906.79,215.77 L907.45,217.90 L908.10,220.07 L908.74,222.27 L909.36,224.51 L909.98,226.78 L910.57,229.09 L911.16,231.44 L911.73,233.82 L912.28,236.24 L912.83,238.71 L913.36,241.21 L913.88,243.76 L914.38,246.36 L914.87,249.00 L915.35,251.69 L915.81,254.43 L916.26,257.23 L916.70,260.07 L917.13,262.98 L917.54,265.94 L917.94,268.97 L918.33,272.06 L918.70,275.22 L919.06,278.46 L919.41,281.77 L919.74,285.15 L920.07,288.63 L920.37,292.19 L920.67,295.85 L920.96,299.61 L921.23,303.48 L921.48,307.47 L921.73,311.58 L921.96,315.83 L922.18,320.23 L922.39,324.79 L922.59,329.54 L922.77,334.48 L922.94,339.64 L923.10,345.05 L923.24,350.74 L923.37,356.76 L923.49,363.15 L923.60,369.99 L923.69,377.36 L923.77,385.40 L923.84,394.30 L923.90,404.35 L923.94,416.05 L923.97,430.41 L923.99,450.17 Z" fill="url(#bg)"/><rect width="1024" height="1024" fill="url(#gl)" clip-path="url(#pl)"/><path d="M922.50,512.00 L922.49,573.61 L922.47,593.29 L922.44,607.61 L922.40,619.26 L922.34,629.27 L922.27,638.13 L922.19,646.15 L922.10,653.50 L921.99,660.31 L921.87,666.68 L921.74,672.67 L921.60,678.34 L921.44,683.73 L921.27,688.88 L921.09,693.80 L920.90,698.52 L920.69,703.07 L920.47,707.45 L920.24,711.69 L919.99,715.79 L919.74,719.76 L919.47,723.62 L919.18,727.37 L918.89,731.01 L918.58,734.56 L918.26,738.02 L917.92,741.40 L917.58,744.69 L917.22,747.91 L916.85,751.06 L916.46,754.14 L916.06,757.16 L915.65,760.11 L915.23,763.01 L914.79,765.85 L914.34,768.63 L913.88,771.36 L913.40,774.04 L912.91,776.67 L912.41,779.26 L911.90,781.80 L911.37,784.30 L910.83,786.75 L910.27,789.17 L909.70,791.54 L909.12,793.88 L908.53,796.18 L907.92,798.44 L907.30,800.67 L906.66,802.87 L906.01,805.03 L905.35,807.15 L904.67,809.25 L903.98,811.32 L903.28,813.35 L902.56,815.36 L901.83,817.34 L901.08,819.29 L900.32,821.21 L899.55,823.10 L898.76,824.97 L897.96,826.81 L897.14,828.63 L896.31,830.42 L895.46,832.18 L894.60,833.93 L893.73,835.65 L892.84,837.34 L891.94,839.01 L891.02,840.66 L890.08,842.29 L889.13,843.89 L888.17,845.48 L887.19,847.04 L886.20,848.58 L885.19,850.10 L884.16,851.60 L883.12,853.08 L882.06,854.54 L880.99,855.99 L879.90,857.41 L878.80,858.81 L877.68,860.19 L876.54,861.56 L875.38,862.90 L874.21,864.23 L873.03,865.54 L871.82,866.83 L870.60,868.10 L869.36,869.36 L868.10,870.60 L866.83,871.82 L865.54,873.03 L864.23,874.21 L862.90,875.38 L861.56,876.54 L860.19,877.68 L858.81,878.80 L857.41,879.90 L855.99,880.99 L854.54,882.06 L853.08,883.12 L851.60,884.16 L850.10,885.19 L848.58,886.20 L847.04,887.19 L845.48,888.17 L843.89,889.13 L842.29,890.08 L840.66,891.02 L839.01,891.94 L837.34,892.84 L835.65,893.73 L833.93,894.60 L832.18,895.46 L830.42,896.31 L828.63,897.14 L826.81,897.96 L824.97,898.76 L823.10,899.55 L821.21,900.32 L819.29,901.08 L817.34,901.83 L815.36,902.56 L813.35,903.28 L811.32,903.98 L809.25,904.67 L807.15,905.35 L805.03,906.01 L802.87,906.66 L800.67,907.30 L798.44,907.92 L796.18,908.53 L793.88,909.12 L791.54,909.70 L789.17,910.27 L786.75,910.83 L784.30,911.37 L781.80,911.90 L779.26,912.41 L776.67,912.91 L774.04,913.40 L771.36,913.88 L768.63,914.34 L765.85,914.79 L763.01,915.23 L760.11,915.65 L757.16,916.06 L754.14,916.46 L751.06,916.85 L747.91,917.22 L744.69,917.58 L741.40,917.92 L738.02,918.26 L734.56,918.58 L731.01,918.89 L727.37,919.18 L723.62,919.47 L719.76,919.74 L715.79,919.99 L711.69,920.24 L707.45,920.47 L703.07,920.69 L698.52,920.90 L693.80,921.09 L688.88,921.27 L683.73,921.44 L678.34,921.60 L672.67,921.74 L666.68,921.87 L660.31,921.99 L653.50,922.10 L646.15,922.19 L638.13,922.27 L629.27,922.34 L619.26,922.40 L607.61,922.44 L593.29,922.47 L573.61,922.49 L512.00,922.50 L450.39,922.49 L430.71,922.47 L416.39,922.44 L404.74,922.40 L394.73,922.34 L385.87,922.27 L377.85,922.19 L370.50,922.10 L363.69,921.99 L357.32,921.87 L351.33,921.74 L345.66,921.60 L340.27,921.44 L335.12,921.27 L330.20,921.09 L325.48,920.90 L320.93,920.69 L316.55,920.47 L312.31,920.24 L308.21,919.99 L304.24,919.74 L300.38,919.47 L296.63,919.18 L292.99,918.89 L289.44,918.58 L285.98,918.26 L282.60,917.92 L279.31,917.58 L276.09,917.22 L272.94,916.85 L269.86,916.46 L266.84,916.06 L263.89,915.65 L260.99,915.23 L258.15,914.79 L255.37,914.34 L252.64,913.88 L249.96,913.40 L247.33,912.91 L244.74,912.41 L242.20,911.90 L239.70,911.37 L237.25,910.83 L234.83,910.27 L232.46,909.70 L230.12,909.12 L227.82,908.53 L225.56,907.92 L223.33,907.30 L221.13,906.66 L218.97,906.01 L216.85,905.35 L214.75,904.67 L212.68,903.98 L210.65,903.28 L208.64,902.56 L206.66,901.83 L204.71,901.08 L202.79,900.32 L200.90,899.55 L199.03,898.76 L197.19,897.96 L195.37,897.14 L193.58,896.31 L191.82,895.46 L190.07,894.60 L188.35,893.73 L186.66,892.84 L184.99,891.94 L183.34,891.02 L181.71,890.08 L180.11,889.13 L178.52,888.17 L176.96,887.19 L175.42,886.20 L173.90,885.19 L172.40,884.16 L170.92,883.12 L169.46,882.06 L168.01,880.99 L166.59,879.90 L165.19,878.80 L163.81,877.68 L162.44,876.54 L161.10,875.38 L159.77,874.21 L158.46,873.03 L157.17,871.82 L155.90,870.60 L154.64,869.36 L153.40,868.10 L152.18,866.83 L150.97,865.54 L149.79,864.23 L148.62,862.90 L147.46,861.56 L146.32,860.19 L145.20,858.81 L144.10,857.41 L143.01,855.99 L141.94,854.54 L140.88,853.08 L139.84,851.60 L138.81,850.10 L137.80,848.58 L136.81,847.04 L135.83,845.48 L134.87,843.89 L133.92,842.29 L132.98,840.66 L132.06,839.01 L131.16,837.34 L130.27,835.65 L129.40,833.93 L128.54,832.18 L127.69,830.42 L126.86,828.63 L126.04,826.81 L125.24,824.97 L124.45,823.10 L123.68,821.21 L122.92,819.29 L122.17,817.34 L121.44,815.36 L120.72,813.35 L120.02,811.32 L119.33,809.25 L118.65,807.15 L117.99,805.03 L117.34,802.87 L116.70,800.67 L116.08,798.44 L115.47,796.18 L114.88,793.88 L114.30,791.54 L113.73,789.17 L113.17,786.75 L112.63,784.30 L112.10,781.80 L111.59,779.26 L111.09,776.67 L110.60,774.04 L110.12,771.36 L109.66,768.63 L109.21,765.85 L108.77,763.01 L108.35,760.11 L107.94,757.16 L107.54,754.14 L107.15,751.06 L106.78,747.91 L106.42,744.69 L106.08,741.40 L105.74,738.02 L105.42,734.56 L105.11,731.01 L104.82,727.37 L104.53,723.62 L104.26,719.76 L104.01,715.79 L103.76,711.69 L103.53,707.45 L103.31,703.07 L103.10,698.52 L102.91,693.80 L102.73,688.88 L102.56,683.73 L102.40,678.34 L102.26,672.67 L102.13,666.68 L102.01,660.31 L101.90,653.50 L101.81,646.15 L101.73,638.13 L101.66,629.27 L101.60,619.26 L101.56,607.61 L101.53,593.29 L101.51,573.61 L101.50,512.00 L101.51,450.39 L101.53,430.71 L101.56,416.39 L101.60,404.74 L101.66,394.73 L101.73,385.87 L101.81,377.85 L101.90,370.50 L102.01,363.69 L102.13,357.32 L102.26,351.33 L102.40,345.66 L102.56,340.27 L102.73,335.12 L102.91,330.20 L103.10,325.48 L103.31,320.93 L103.53,316.55 L103.76,312.31 L104.01,308.21 L104.26,304.24 L104.53,300.38 L104.82,296.63 L105.11,292.99 L105.42,289.44 L105.74,285.98 L106.08,282.60 L106.42,279.31 L106.78,276.09 L107.15,272.94 L107.54,269.86 L107.94,266.84 L108.35,263.89 L108.77,260.99 L109.21,258.15 L109.66,255.37 L110.12,252.64 L110.60,249.96 L111.09,247.33 L111.59,244.74 L112.10,242.20 L112.63,239.70 L113.17,237.25 L113.73,234.83 L114.30,232.46 L114.88,230.12 L115.47,227.82 L116.08,225.56 L116.70,223.33 L117.34,221.13 L117.99,218.97 L118.65,216.85 L119.33,214.75 L120.02,212.68 L120.72,210.65 L121.44,208.64 L122.17,206.66 L122.92,204.71 L123.68,202.79 L124.45,200.90 L125.24,199.03 L126.04,197.19 L126.86,195.37 L127.69,193.58 L128.54,191.82 L129.40,190.07 L130.27,188.35 L131.16,186.66 L132.06,184.99 L132.98,183.34 L133.92,181.71 L134.87,180.11 L135.83,178.52 L136.81,176.96 L137.80,175.42 L138.81,173.90 L139.84,172.40 L140.88,170.92 L141.94,169.46 L143.01,168.01 L144.10,166.59 L145.20,165.19 L146.32,163.81 L147.46,162.44 L148.62,161.10 L149.79,159.77 L150.97,158.46 L152.18,157.17 L153.40,155.90 L154.64,154.64 L155.90,153.40 L157.17,152.18 L158.46,150.97 L159.77,149.79 L161.10,148.62 L162.44,147.46 L163.81,146.32 L165.19,145.20 L166.59,144.10 L168.01,143.01 L169.46,141.94 L170.92,140.88 L172.40,139.84 L173.90,138.81 L175.42,137.80 L176.96,136.81 L178.52,135.83 L180.11,134.87 L181.71,133.92 L183.34,132.98 L184.99,132.06 L186.66,131.16 L188.35,130.27 L190.07,129.40 L191.82,128.54 L193.58,127.69 L195.37,126.86 L197.19,126.04 L199.03,125.24 L200.90,124.45 L202.79,123.68 L204.71,122.92 L206.66,122.17 L208.64,121.44 L210.65,120.72 L212.68,120.02 L214.75,119.33 L216.85,118.65 L218.97,117.99 L221.13,117.34 L223.33,116.70 L225.56,116.08 L227.82,115.47 L230.12,114.88 L232.46,114.30 L234.83,113.73 L237.25,113.17 L239.70,112.63 L242.20,112.10 L244.74,111.59 L247.33,111.09 L249.96,110.60 L252.64,110.12 L255.37,109.66 L258.15,109.21 L260.99,108.77 L263.89,108.35 L266.84,107.94 L269.86,107.54 L272.94,107.15 L276.09,106.78 L279.31,106.42 L282.60,106.08 L285.98,105.74 L289.44,105.42 L292.99,105.11 L296.63,104.82 L300.38,104.53 L304.24,104.26 L308.21,104.01 L312.31,103.76 L316.55,103.53 L320.93,103.31 L325.48,103.10 L330.20,102.91 L335.12,102.73 L340.27,102.56 L345.66,102.40 L351.33,102.26 L357.32,102.13 L363.69,102.01 L370.50,101.90 L377.85,101.81 L385.87,101.73 L394.73,101.66 L404.74,101.60 L416.39,101.56 L430.71,101.53 L450.39,101.51 L512.00,101.50 L573.61,101.51 L593.29,101.53 L607.61,101.56 L619.26,101.60 L629.27,101.66 L638.13,101.73 L646.15,101.81 L653.50,101.90 L660.31,102.01 L666.68,102.13 L672.67,102.26 L678.34,102.40 L683.73,102.56 L688.88,102.73 L693.80,102.91 L698.52,103.10 L703.07,103.31 L707.45,103.53 L711.69,103.76 L715.79,104.01 L719.76,104.26 L723.62,104.53 L727.37,104.82 L731.01,105.11 L734.56,105.42 L738.02,105.74 L741.40,106.08 L744.69,106.42 L747.91,106.78 L751.06,107.15 L754.14,107.54 L757.16,107.94 L760.11,108.35 L763.01,108.77 L765.85,109.21 L768.63,109.66 L771.36,110.12 L774.04,110.60 L776.67,111.09 L779.26,111.59 L781.80,112.10 L784.30,112.63 L786.75,113.17 L789.17,113.73 L791.54,114.30 L793.88,114.88 L796.18,115.47 L798.44,116.08 L800.67,116.70 L802.87,117.34 L805.03,117.99 L807.15,118.65 L809.25,119.33 L811.32,120.02 L813.35,120.72 L815.36,121.44 L817.34,122.17 L819.29,122.92 L821.21,123.68 L823.10,124.45 L824.97,125.24 L826.81,126.04 L828.63,126.86 L830.42,127.69 L832.18,128.54 L833.93,129.40 L835.65,130.27 L837.34,131.16 L839.01,132.06 L840.66,132.98 L842.29,133.92 L843.89,134.87 L845.48,135.83 L847.04,136.81 L848.58,137.80 L850.10,138.81 L851.60,139.84 L853.08,140.88 L854.54,141.94 L855.99,143.01 L857.41,144.10 L858.81,145.20 L860.19,146.32 L861.56,147.46 L862.90,148.62 L864.23,149.79 L865.54,150.97 L866.83,152.18 L868.10,153.40 L869.36,154.64 L870.60,155.90 L871.82,157.17 L873.03,158.46 L874.21,159.77 L875.38,161.10 L876.54,162.44 L877.68,163.81 L878.80,165.19 L879.90,166.59 L880.99,168.01 L882.06,169.46 L883.12,170.92 L884.16,172.40 L885.19,173.90 L886.20,175.42 L887.19,176.96 L888.17,178.52 L889.13,180.11 L890.08,181.71 L891.02,183.34 L891.94,184.99 L892.84,186.66 L893.73,188.35 L894.60,190.07 L895.46,191.82 L896.31,193.58 L897.14,195.37 L897.96,197.19 L898.76,199.03 L899.55,200.90 L900.32,202.79 L901.08,204.71 L901.83,206.66 L902.56,208.64 L903.28,210.65 L903.98,212.68 L904.67,214.75 L905.35,216.85 L906.01,218.97 L906.66,221.13 L907.30,223.33 L907.92,225.56 L908.53,227.82 L909.12,230.12 L909.70,232.46 L910.27,234.83 L910.83,237.25 L911.37,239.70 L911.90,242.20 L912.41,244.74 L912.91,247.33 L913.40,249.96 L913.88,252.64 L914.34,255.37 L914.79,258.15 L915.23,260.99 L915.65,263.89 L916.06,266.84 L916.46,269.86 L916.85,272.94 L917.22,276.09 L917.58,279.31 L917.92,282.60 L918.26,285.98 L918.58,289.44 L918.89,292.99 L919.18,296.63 L919.47,300.38 L919.74,304.24 L919.99,308.21 L920.24,312.31 L920.47,316.55 L920.69,320.93 L920.90,325.48 L921.09,330.20 L921.27,335.12 L921.44,340.27 L921.60,345.66 L921.74,351.33 L921.87,357.32 L921.99,363.69 L922.10,370.50 L922.19,377.85 L922.27,385.87 L922.34,394.73 L922.40,404.74 L922.44,416.39 L922.47,430.71 L922.49,450.39 Z" fill="none" stroke="#fff" stroke-opacity="0.08" stroke-width="3.00"/><g transform="rotate(-7 512.00 514.00)"><ellipse cx="501.44" cy="735.10" rx="217.80" ry="30.36" fill="#0b131b" opacity="0.55" filter="url(#bl)"/><path d="M630.80,407.74 L716.60,308.74 L716.60,632.14 L630.80,731.14 Z" fill="url(#rf)" stroke="url(#rf)" stroke-width="21.12" stroke-linejoin="round"/><path d="M314.00,407.74 L630.80,407.74 L716.60,308.74 L399.80,308.74 Z" fill="#e3c27f" stroke="#e3c27f" stroke-width="21.12" stroke-linejoin="round"/><path d="M314.00,407.74 L630.80,407.74 L630.80,731.14 L314.00,731.14 Z" fill="url(#ff)" stroke="url(#ff)" stroke-width="21.12" stroke-linejoin="round"/><path d="M532.46,358.24 V305.44 H645.98 V358.24 A56.76,29.04 0 0 1 532.46,358.24 Z" fill="#dab772"/><path d="M614.76,305.44 H645.98 V358.24 A56.76,29.04 0 0 1 614.76,384.09 Z" fill="#bf9956"/><ellipse cx="589.22" cy="305.44" rx="56.76" ry="29.04" fill="#eed49c"/><path d="M379.34,358.24 V305.44 H492.86 V358.24 A56.76,29.04 0 0 1 379.34,358.24 Z" fill="#dab772"/><path d="M461.64,305.44 H492.86 V358.24 A56.76,29.04 0 0 1 461.64,384.09 Z" fill="#bf9956"/><ellipse cx="436.10" cy="305.44" rx="56.76" ry="29.04" fill="#eed49c"/><path d="M319.28,407.74 L628.16,407.74" stroke="#f3dfb0" stroke-width="9.24" stroke-linecap="round" opacity="0.7"/></g></svg>